<svg xmlns="http://www.w3.org/2000/svg" shape-rendering="geometricPrecision" text-rendering="geometricPrecision" image-rendering="optimizeQuality" fill-rule="evenodd" clip-rule="evenodd" viewBox="0 0 443 511.591"><g fill-rule="nonzero"><path fill="#916C30" d="M405.404 72.883c-.133-33.082-.241-60.384 35.036-72.724a1.813 1.813 0 011.373-.045 1.822 1.822 0 011.073 2.34c-4.626 12.472-4.49 29.24-4.351 46.313.276 33.736.558 68.64-34.751 77.193a1.818 1.818 0 01-2.321-2.136c4.075-17.579 4.004-34.956 3.941-50.941z"/><path fill="#EBB562" d="M438.266 4.865c-29.456 12.077-29.358 37.468-29.235 68.005.061 15.315.127 31.891-3.382 48.823 29.776-9.052 29.514-41.504 29.259-72.899-.129-15.835-.254-31.415 3.358-43.929z"/><path fill="#916C30" d="M365.299 111.162c-.133-33.082-.241-60.384 35.036-72.725a1.818 1.818 0 011.373-.045 1.825 1.825 0 011.074 2.341c-4.627 12.472-4.49 29.239-4.351 46.312.275 33.737.557 68.64-34.752 77.193a1.819 1.819 0 01-2.322-2.136c4.076-17.578 4.005-34.956 3.942-50.94z"/><path fill="#EBB562" d="M398.161 43.144c-29.455 12.077-29.358 37.467-29.235 68.004.061 15.315.128 31.892-3.382 48.824 29.777-9.053 29.514-41.504 29.259-72.899-.129-15.836-.254-31.416 3.358-43.929z"/><path fill="#916C30" d="M325.167 149.381c-.133-33.083-.241-60.384 35.036-72.725a1.813 1.813 0 011.373-.045 1.822 1.822 0 011.073 2.34c-4.626 12.473-4.489 29.24-4.351 46.313.276 33.736.558 68.64-34.751 77.193a1.818 1.818 0 01-2.322-2.136c4.076-17.578 4.005-34.955 3.942-50.94z"/><path fill="#EBB562" d="M358.029 81.363c-29.455 12.076-29.358 37.467-29.235 68.004.061 15.315.127 31.892-3.382 48.824 29.777-9.053 29.514-41.504 29.259-72.899-.129-15.836-.254-31.416 3.358-43.929z"/><path fill="#916C30" d="M285.018 187.642c-.133-33.082-.24-60.384 35.036-72.725a1.821 1.821 0 012.447 2.296c-4.626 12.472-4.49 29.239-4.351 46.313.275 33.736.557 68.64-34.751 77.192a1.816 1.816 0 01-2.322-2.136c4.076-17.578 4.004-34.955 3.941-50.94z"/><path fill="#EBB562" d="M317.88 119.624c-29.455 12.077-29.357 37.468-29.234 68.004.06 15.315.127 31.892-3.382 48.824 29.776-9.053 29.514-41.504 29.259-72.899-.13-15.835-.255-31.415 3.357-43.929z"/><path fill="#916C30" d="M244.861 225.898c-.133-33.082-.241-60.384 35.036-72.725a1.82 1.82 0 012.446 2.295c-4.626 12.473-4.489 29.24-4.351 46.313.276 33.736.558 68.64-34.751 77.193a1.818 1.818 0 01-2.321-2.136c4.075-17.578 4.004-34.955 3.941-50.94z"/><path fill="#EBB562" d="M277.723 157.88c-29.455 12.076-29.358 37.467-29.235 68.004.061 15.315.127 31.892-3.381 48.824 29.776-9.053 29.513-41.504 29.259-72.899-.13-15.836-.255-31.416 3.357-43.929z"/><path fill="#916C30" d="M204.715 264.126c-.133-33.082-.241-60.384 35.036-72.725a1.813 1.813 0 011.373-.045 1.825 1.825 0 011.074 2.341c-4.627 12.472-4.49 29.239-4.351 46.312.275 33.736.557 68.64-34.752 77.193a1.818 1.818 0 01-2.322-2.136c4.076-17.578 4.005-34.955 3.942-50.94z"/><path fill="#EBB562" d="M237.577 196.108c-29.455 12.076-29.358 37.467-29.235 68.004.061 15.315.128 31.892-3.382 48.824 29.777-9.053 29.514-41.504 29.259-72.899-.129-15.836-.254-31.416 3.358-43.929z"/><path fill="#916C30" d="M164.547 302.413c-.133-33.083-.241-60.385 35.036-72.725.42-.187.909-.217 1.373-.045a1.821 1.821 0 011.073 2.34c-4.626 12.473-4.489 29.239-4.35 46.313.275 33.736.557 68.64-34.752 77.192a1.818 1.818 0 01-2.321-2.135c4.075-17.578 4.004-34.956 3.941-50.94z"/><path fill="#EBB562" d="M197.409 234.394c-29.455 12.077-29.358 37.468-29.235 68.005.061 15.314.127 31.891-3.381 48.823 29.776-9.052 29.513-41.504 29.259-72.899-.13-15.835-.255-31.415 3.357-43.929z"/><path fill="#916C30" d="M124.429 340.647c-.133-33.082-.241-60.384 35.035-72.724.42-.187.91-.217 1.374-.045a1.822 1.822 0 011.073 2.34c-4.626 12.472-4.49 29.239-4.351 46.313.276 33.736.558 68.64-34.751 77.192a1.815 1.815 0 01-2.322-2.135c4.076-17.578 4.005-34.956 3.942-50.941z"/><path fill="#EBB562" d="M157.291 272.629c-29.456 12.077-29.358 37.468-29.235 68.004.061 15.315.127 31.892-3.382 48.824 29.776-9.052 29.514-41.504 29.259-72.899-.13-15.835-.255-31.415 3.358-43.929z"/><path fill="#916C30" d="M84.279 380.103c-.133-33.082-.241-60.384 35.036-72.725.42-.187.91-.217 1.373-.045a1.823 1.823 0 011.074 2.341c-4.627 12.472-4.49 29.239-4.351 46.313.275 33.735.557 68.639-34.751 77.192a1.816 1.816 0 01-2.322-2.136c4.075-17.578 4.004-34.955 3.941-50.94z"/><path fill="#EBB562" d="M117.141 312.085c-29.455 12.076-29.357 37.467-29.235 68.004.061 15.315.128 31.891-3.381 48.824 29.776-9.053 29.513-41.504 29.259-72.899-.13-15.836-.255-31.416 3.357-43.929z"/><path fill="#916C30" d="M44.114 418.372c-.133-33.082-.241-60.384 35.035-72.724a1.822 1.822 0 012.447 2.295c-4.626 12.472-4.489 29.239-4.351 46.313.275 33.736.558 68.639-34.751 77.192a1.818 1.818 0 01-2.322-2.136c4.076-17.578 4.005-34.955 3.942-50.94z"/><path fill="#EBB562" d="M76.976 350.354c-29.455 12.077-29.358 37.468-29.235 68.005.061 15.315.127 31.891-3.382 48.823 29.777-9.053 29.514-41.504 29.259-72.899-.13-15.835-.255-31.415 3.358-43.929z"/><path fill="#916C30" d="M3.987 458.429c-.133-33.082-.241-60.385 35.036-72.725.42-.187.909-.217 1.373-.045A1.824 1.824 0 0141.47 388c-4.627 12.472-4.49 29.239-4.351 46.312.275 33.736.557 68.64-34.752 77.193a1.818 1.818 0 01-2.321-2.136c4.075-17.578 4.004-34.956 3.941-50.94z"/><path fill="#EBB562" d="M36.849 390.411C7.394 402.487 7.491 427.878 7.614 458.415c.061 15.315.127 31.891-3.381 48.824 29.776-9.053 29.513-41.504 29.259-72.899-.13-15.836-.255-31.416 3.357-43.929z"/></g></svg>